<svg width="48" height="48" viewBox="0 0 48 48" fill="none" xmlns="http://www.w3.org/2000/svg">
<rect width="48" height="48" rx="4.21875" fill="black"/>
<path d="M7.78174 15.6479H16.9947C18.4484 15.6479 19.6269 16.8265 19.6269 18.2802V23.9835H10.414C8.96024 23.9835 7.78174 22.805 7.78174 21.3512V15.6479Z" fill="#84F633"/>
<path d="M19.6265 7.3125H8.21997C7.97768 7.3125 7.78126 7.50892 7.78126 7.75121V15.648H16.9942C18.448 15.648 19.6265 14.4695 19.6265 13.0157V7.3125Z" fill="#84F633"/>
<path d="M31.4717 15.6479H22.2587C20.805 15.6479 19.6265 14.4694 19.6265 13.0157V7.31244H28.8394C30.2932 7.31244 31.4717 8.49094 31.4717 9.9447V15.6479Z" fill="#84F633"/>
<path d="M31.4717 40.6545V26.6158C31.4717 25.162 32.6502 23.9835 34.1039 23.9835L40.2459 23.9835V38.0223C40.2459 39.476 39.0674 40.6545 37.6136 40.6545H31.4717Z" fill="#84F633"/>
<path d="M40.2461 23.9835V9.94476C40.2461 8.491 39.0676 7.31249 37.6138 7.31249H31.4719L31.4719 21.3513C31.4719 22.805 32.6504 23.9835 34.1041 23.9835H40.2461Z" fill="#84F633"/>
<path d="M19.6265 23.9835H10.4135C8.95976 23.9835 7.78126 25.162 7.78126 26.6158V32.319H16.9942C18.448 32.319 19.6265 31.1405 19.6265 29.6868V23.9835Z" fill="#84F633"/>
<path d="M19.6265 40.6545H8.21997C7.97768 40.6545 7.78126 40.4581 7.78126 40.2158V32.319H16.9942C18.448 32.319 19.6265 33.4975 19.6265 34.9513V40.6545Z" fill="#84F633"/>
<path d="M19.6265 40.6545H28.8394C30.2932 40.6545 31.4717 39.476 31.4717 38.0223V32.319H22.2587C20.805 32.319 19.6265 33.4975 19.6265 34.9513V40.6545Z" fill="#84F633"/>
</svg>
